<?xml version="1.0" encoding="UTF-8"?><svg id="Layer_2" xmlns="http://www.w3.org/2000/svg" viewBox="0 0 172.3 29.1"><g id="Layer_1-2"><path d="M23.62,23.62h-15.2l-2.49,5.48H0L13.04.04h5.98l13.04,29.06h-5.98l-2.45-5.48ZM16.03,6.14l-5.4,12.37h10.79l-5.4-12.37Z"/><path d="M43.51,5.02h-9.22V.04h23.91v4.98h-9.22v24.08h-5.48V5.02Z"/><path d="M75.27,5.02h-9.22V.04h23.91v4.98h-9.22v24.08h-5.48V5.02Z"/><path d="M99.56,29.1V.04h5.44v29.06h-5.44Z"/><path d="M142.16,29.1h-6.52l-8.47-9.72h-5.27v9.72h-5.48V0c4.61,0,9.22.04,13.83.04,6.85.04,10.46,4.61,10.46,9.63,0,3.99-1.83,8.01-7.35,9.13l8.8,9.92v.37ZM121.9,5.15v9.3h8.35c3.49,0,4.98-2.32,4.98-4.65s-1.54-4.65-4.98-4.65h-8.35Z"/><path d="M172.3,29.1h-21.76V.04h21.76v5.31h-16.32v6.68h15.74v5.11h-15.74v6.56h16.32v5.4Z"/></g></svg>